solid 
  facet normal 0 0 -1
    outer loop
      vertex 160 160 0
      vertex 160 60 0
      vertex 60 60 0
    endloop
  endfacet
  facet normal 0 0 -1
    outer loop
      vertex 160 160 0
      vertex 60 60 0
      vertex 60 160 0
    endloop
  endfacet
  facet normal 0 0 1
    outer loop
      vertex 160 160 0.20000000298023224
      vertex 60 160 0.20000000298023224
      vertex 60 60 0.20000000298023224
    endloop
  endfacet
  facet normal 0 0 1
    outer loop
      vertex 160 160 0.20000000298023224
      vertex 60 60 0.20000000298023224
      vertex 160 60 0.20000000298023224
    endloop
  endfacet
  facet normal 1 0 0
    outer loop
      vertex 160 160 0
      vertex 160 160 0.20000000298023224
      vertex 160 60 0.20000000298023224
    endloop
  endfacet
  facet normal 1 0 0
    outer loop
      vertex 160 160 0
      vertex 160 60 0.20000000298023224
      vertex 160 60 0
    endloop
  endfacet
  facet normal 0 -1 0
    outer loop
      vertex 160 60 0
      vertex 160 60 0.20000000298023224
      vertex 60 60 0.20000000298023224
    endloop
  endfacet
  facet normal 0 -1 0
    outer loop
      vertex 160 60 0
      vertex 60 60 0.20000000298023224
      vertex 60 60 0
    endloop
  endfacet
  facet normal -1 0 0
    outer loop
      vertex 60 60 0
      vertex 60 60 0.20000000298023224
      vertex 60 160 0.20000000298023224
    endloop
  endfacet
  facet normal -1 0 0
    outer loop
      vertex 60 60 0
      vertex 60 160 0.20000000298023224
      vertex 60 160 0
    endloop
  endfacet
  facet normal 0 1 0
    outer loop
      vertex 160 160 0.20000000298023224
      vertex 160 160 0
      vertex 60 160 0
    endloop
  endfacet
  facet normal 0 1 0
    outer loop
      vertex 160 160 0.20000000298023224
      vertex 60 160 0
      vertex 60 160 0.20000000298023224
    endloop
  endfacet
endsolid 
